<?xml version="1.0" encoding="UTF-8" standalone="no"?>
<svg
   xmlns:dc="http://purl.org/dc/elements/1.1/"
   xmlns:cc="http://creativecommons.org/ns#"
   xmlns:rdf="http://www.w3.org/1999/02/22-rdf-syntax-ns#"
   xmlns:svg="http://www.w3.org/2000/svg"
   xmlns="http://www.w3.org/2000/svg"
   xmlns:sodipodi="http://sodipodi.sourceforge.net/DTD/sodipodi-0.dtd"
   xmlns:inkscape="http://www.inkscape.org/namespaces/inkscape"
   width="58.25in"
   height="40.125in"
   viewBox="0 0 58.25 40.125"
   version="1.1"
   preserveAspectRatio="xMidYMid meet"
   id="svg13"
   sodipodi:docname="box-markedup.svg"
   inkscape:version="0.92.2 5c3e80d, 2017-08-06">
  <metadata
     id="metadata19">
    <rdf:RDF>
      <cc:Work
         rdf:about="">
        <dc:format>image/svg+xml</dc:format>
        <dc:type
           rdf:resource="http://purl.org/dc/dcmitype/StillImage" />
      </cc:Work>
    </rdf:RDF>
  </metadata>
  <defs
     id="defs17" />
  <sodipodi:namedview
     pagecolor="#ffffff"
     bordercolor="#666666"
     borderopacity="1"
     objecttolerance="10"
     gridtolerance="10"
     guidetolerance="10"
     inkscape:pageopacity="0"
     inkscape:pageshadow="2"
     inkscape:window-width="1453"
     inkscape:window-height="787"
     id="namedview15"
     showgrid="false"
     inkscape:zoom="0.086644445"
     inkscape:cx="2279.6867"
     inkscape:cy="1543.551"
     inkscape:window-x="0"
     inkscape:window-y="0"
     inkscape:window-maximized="0"
     inkscape:current-layer="svgGroup" />
  <g
     id="svgGroup"
     font-size="9pt"
     style="font-size:12px;fill:none;fill-rule:evenodd;stroke:#000000;stroke-width:0.25000001mm;stroke-linecap:round">
    <path
       d="m 0,20.125 v 3.993 h 0.177 v 4.005 H 0 v 4.004 h 0.177 v 4.005 H 0 v 3.993 h 4.493 v -0.177 h 4.005 v 0.177 h 4.004 v -0.177 h 4.005 v 0.177 H 20.512 21 V 36.132 H 20.823 V 32.127 H 21 V 28.123 H 20.823 V 24.118 H 21 v -3.993 z"
       id="front_outsideCutPath"
       style="vector-effect:non-scaling-stroke;stroke:#ff0000;stroke-width:0.12"
       inkscape:connector-curvature="0" />
    <path
       d="m 7.5514318,35.894065 0.3239165,-0.0074 0.031459,1.384643 a 0.916,0.916 0 0 0 0.014268,0.143713 q 0.028537,0.155391 0.1135825,0.244483 a 0.366,0.366 0 0 0 0.1521191,0.09157 q 0.094748,0.03186 0.2237148,0.02893 0.3359133,-0.0076 0.4887388,-0.193151 0.1518258,-0.185497 0.1423313,-0.603389 l -0.025508,-1.12271 0.3239164,-0.0074 0.048631,2.140447 -0.2639319,0.006 -0.058642,-0.291743 -0.015996,3.63e-4 a 0.657,0.657 0 0 1 -0.2516186,0.239777 0.79,0.79 0 0 1 -0.021744,0.0115 0.878,0.878 0 0 1 -0.3110339,0.09009 1.062,1.062 0 0 1 -0.087887,0.006 q -0.2559339,0.0058 -0.4297521,-0.07226 A 0.583,0.583 0 0 1 7.7916508,37.882122 Q 7.6404863,37.74452 7.5983174,37.473408 a 1.415,1.415 0 0 1 -0.015154,-0.182703 z m 6.2750242,1.998984 -0.0057,-0.251935 0.544859,-0.01238 -0.04291,-1.888513 0.324917,-0.0074 0.04291,1.888513 0.381901,-0.0087 0.0033,0.145962 -0.379221,0.126647 0.0027,0.118969 a 1.314,1.314 0 0 1 -0.02422,0.298627 q -0.08575,0.408053 -0.472064,0.486848 a 0.985,0.985 0 0 1 -0.175613,0.01899 1.044,1.044 0 0 1 -0.148212,-0.0076 q -0.07123,-0.0094 -0.151643,-0.02656 a 2.099,2.099 0 0 1 -0.09961,-0.02574 l 0.0781,-0.260841 a 1.574,1.574 0 0 0 0.122741,0.03122 q 0.06232,0.01359 0.116447,0.01836 a 0.697,0.697 0 0 0 0.08209,0.0031 0.437,0.437 0 0 0 0.1047,-0.01438 0.281,0.281 0 0 0 0.164458,-0.113765 0.375,0.375 0 0 0 0.04672,-0.101087 q 0.03079,-0.09772 0.03247,-0.2438 a 1.531,1.531 0 0 0 -0.0011,-0.04799 l -0.0032,-0.138964 z m -7.9185111,-1.693575 -0.00563,-0.247936 q 0.046466,-0.02406 0.1340793,-0.04206 a 1.214,1.214 0 0 1 0.019927,-0.0035 q 0.095612,-0.01818 0.1725693,-0.02093 a 0.831,0.831 0 0 1 0.010997,-2.49e-4 0.847,0.847 0 0 1 0.2507078,0.02831 q 0.3744935,0.105521 0.3860095,0.61239 l 0.028915,1.272672 0.3059211,-0.007 0.00354,0.15596 -0.3028546,0.141916 -0.1265843,0.459994 -0.1879515,0.0043 -0.011266,-0.495872 -0.6208398,0.01411 -0.00572,-0.251935 0.6208398,-0.01411 -0.02862,-1.259675 q -0.00309,-0.135965 -0.050145,-0.225919 a 0.314,0.314 0 0 0 -0.048578,-0.06892 0.301,0.301 0 0 0 -0.1871783,-0.09377 0.433,0.433 0 0 0 -0.066096,-0.0035 1.065,1.065 0 0 0 -0.1557099,0.01454 0.981,0.981 0 0 0 -0.00995,0.0022 q -0.076708,0.01375 -0.1224004,0.02779 a 0.488,0.488 0 0 0 -0.00398,0.0011 z m 6.2962931,1.746436 0.03815,-0.301944 q 0.133624,0.02597 0.235598,0.02365 a 0.562,0.562 0 0 0 0.410827,-0.18838 0.768,0.768 0 0 0 0.02827,-0.03265 0.74,0.74 0 0 0 0.169505,-0.419959 0.984,0.984 0 0 0 0.0035,-0.109108 l -0.0261,-1.148704 0.323917,-0.0074 0.04863,2.140448 -0.267931,0.0061 -0.04601,-0.396057 -0.015,3.41e-4 a 1.095,1.095 0 0 1 -0.118994,0.177748 0.836,0.836 0 0 1 -0.161595,0.15171 0.646,0.646 0 0 1 -0.366338,0.121352 1.488,1.488 0 0 1 -0.133102,-0.003 1.086,1.086 0 0 1 -0.123355,-0.0142 z M 9.9547837,36.586654 a 1.675,1.675 0 0 0 -0.02259,0.326597 q 0.01156,0.508869 0.2832853,0.801772 a 0.849,0.849 0 0 0 0.399667,0.244986 1.089,1.089 0 0 0 0.32094,0.03772 1.259,1.259 0 0 0 0.22551,-0.02413 0.858,0.858 0 0 0 0.49367,-0.284287 0.896,0.896 0 0 0 0.106497,-0.155459 q 0.145964,-0.267384 0.136924,-0.665282 -0.0077,-0.337912 -0.134371,-0.587099 a 1.066,1.066 0 0 0 -0.02504,-0.04544 0.878,0.878 0 0 0 -0.327663,-0.333643 0.903,0.903 0 0 0 -0.209037,-0.08727 1.041,1.041 0 0 0 -0.302898,-0.03613 1.259,1.259 0 0 0 -0.219512,0.02399 0.864,0.864 0 0 0 -0.502622,0.286491 0.904,0.904 0 0 0 -0.104611,0.150415 q -0.08357,0.151937 -0.1181543,0.346773 z m 1.6079913,0.28955 a 1.642,1.642 0 0 0 -0.02033,-0.234598 q -0.0207,-0.118561 -0.05887,-0.213718 a 0.68,0.68 0 0 0 -0.09895,-0.172797 0.531,0.531 0 0 0 -0.350544,-0.196088 0.805,0.805 0 0 0 -0.136215,-0.0079 0.753,0.753 0 0 0 -0.198404,0.02851 0.524,0.524 0 0 0 -0.28061,0.196425 q -0.16012,0.216693 -0.150739,0.629586 a 1.618,1.618 0 0 0 0.02122,0.229577 q 0.01965,0.116584 0.05682,0.211764 a 0.668,0.668 0 0 0 0.100996,0.174751 0.533,0.533 0 0 0 0.336411,0.190408 0.818,0.818 0 0 0 0.156278,0.01045 0.772,0.772 0 0 0 0.191428,-0.02736 0.516,0.516 0 0 0 0.283701,-0.192494 0.67,0.67 0 0 0 0.09938,-0.20431 q 0.0289,-0.09268 0.04131,-0.206991 a 1.713,1.713 0 0 0 0.0071,-0.215218 z"
       id="front_labelLayer"
       style="vector-effect:non-scaling-stroke;fill:#777777;stroke:#777777"
       inkscape:connector-curvature="0" />
    <path
       d="m 21.302,20.125 v 3.993 h -0.177 v 4.005 h 0.177 v 4.004 h -0.177 v 4.005 h 0.177 v 3.993 h 5.821 v -0.177 h 4.004 v 0.177 h 4.005 1.816 v -3.993 h 0.177 v -4.005 h -0.177 v -4.004 h 0.177 v -4.005 h -0.177 v -3.993 z"
       id="left_outsideCutPath"
       style="vector-effect:non-scaling-stroke;stroke:#ff0000;stroke-width:0.12"
       inkscape:connector-curvature="0" />
    <path
       d="m 30.263,29.621 v 0.202 h -0.436 v 1.511 h -0.259 v -1.511 h -0.306 v -0.118 l 0.306,-0.093 v -0.096 a 1.051,1.051 0 0 1 0.025,-0.238 q 0.075,-0.325 0.386,-0.381 a 0.788,0.788 0 0 1 0.141,-0.012 0.835,0.835 0 0 1 0.118,0.009 q 0.057,0.008 0.121,0.024 a 1.679,1.679 0 0 1 0.079,0.022 l -0.067,0.208 Q 30.265,29.113 30.18,29.103 a 0.558,0.558 0 0 0 -0.065,-0.004 0.35,0.35 0 0 0 -0.084,0.01 0.225,0.225 0 0 0 -0.133,0.088 0.3,0.3 0 0 0 -0.04,0.08 q -0.026,0.078 -0.03,0.194 a 1.225,1.225 0 0 0 -10e-4,0.039 v 0.111 z m -1.214,0.739 v 0.164 H 27.87 q 0.007,0.302 0.152,0.458 a 0.471,0.471 0 0 0 0.247,0.139 0.714,0.714 0 0 0 0.16,0.017 1.37,1.37 0 0 0 0.513,-0.101 1.57,1.57 0 0 0 0.034,-0.014 v 0.231 a 1.557,1.557 0 0 1 -0.142,0.053 1.191,1.191 0 0 1 -0.118,0.032 q -0.096,0.02 -0.222,0.025 a 2.113,2.113 0 0 1 -0.074,10e-4 1.008,1.008 0 0 1 -0.253,-0.03 0.714,0.714 0 0 1 -0.347,-0.201 0.763,0.763 0 0 1 -0.182,-0.336 q -0.032,-0.119 -0.036,-0.26 a 1.481,1.481 0 0 1 -0.001,-0.047 1.362,1.362 0 0 1 0.025,-0.27 q 0.046,-0.229 0.179,-0.387 a 0.665,0.665 0 0 1 0.484,-0.242 0.917,0.917 0 0 1 0.063,-0.002 0.79,0.79 0 0 1 0.223,0.03 0.601,0.601 0 0 1 0.287,0.182 0.725,0.725 0 0 1 0.164,0.331 1.056,1.056 0 0 1 0.023,0.227 z m 2.314,0.759 v 0.199 a 0.255,0.255 0 0 1 -0.03,0.012 q -0.038,0.012 -0.094,0.022 a 1.124,1.124 0 0 1 -0.073,0.009 q -0.04,0.004 -0.075,0.004 a 0.677,0.677 0 0 1 -0.199,-0.027 q -0.22,-0.068 -0.277,-0.306 a 0.815,0.815 0 0 1 -0.02,-0.191 v -1.018 h -0.246 v -0.125 l 0.246,-0.108 0.109,-0.366 h 0.15 v 0.397 h 0.497 v 0.202 h -0.497 v 1.007 a 0.522,0.522 0 0 0 0.007,0.092 q 0.009,0.05 0.029,0.09 a 0.252,0.252 0 0 0 0.037,0.056 0.241,0.241 0 0 0 0.148,0.079 0.347,0.347 0 0 0 0.054,0.004 q 0.069,0 0.133,-0.01 0.061,-0.01 0.098,-0.021 a 0.389,0.389 0 0 0 0.003,-0.001 z m -4.217,-2.217 v 2.432 h -0.259 v -2.432 z m 0.73,1.411 h 0.895 A 0.884,0.884 0 0 0 28.76,30.171 q -0.012,-0.076 -0.039,-0.137 a 0.401,0.401 0 0 0 -0.059,-0.097 0.355,0.355 0 0 0 -0.214,-0.121 0.533,0.533 0 0 0 -0.099,-0.009 0.511,0.511 0 0 0 -0.147,0.02 0.395,0.395 0 0 0 -0.182,0.114 0.512,0.512 0 0 0 -0.102,0.172 q -0.025,0.071 -0.037,0.156 a 0.98,0.98 0 0 0 -0.005,0.044 z"
       id="left_labelLayer"
       style="vector-effect:non-scaling-stroke;fill:#777777;stroke:#777777"
       inkscape:connector-curvature="0" />
    <path
       d="M 0,0 V 3.993 H 0.177 V 7.998 H 0 v 4.004 h 0.177 v 4.005 H 0 V 20 H 4.493 V 19.823 H 8.498 V 20 h 4.004 v -0.177 h 4.005 V 20 H 20.512 21 V 16.007 H 20.823 V 12.002 H 21 V 7.998 H 20.823 V 3.993 H 21 V 0 Z"
       id="back_outsideCutPath"
       style="vector-effect:non-scaling-stroke;stroke:#ff0000;stroke-width:0.12"
       inkscape:connector-curvature="0" />
    <path
       d="m 7.4800151,16.387396 -0.015995,3.83e-4 a 1.919,1.919 0 0 1 -0.045454,0.06511 q -0.077512,0.104885 -0.2030029,0.252933 l -0.6732516,0.749334 -0.3848897,0.0092 0.8449155,-0.932497 -0.9561602,-1.206453 0.3918876,-0.0094 0.7800136,0.993609 0.2388781,-0.216782 -0.019178,-0.80077 0.3199083,-0.0077 0.072763,3.038128 -0.3199082,0.0077 -0.038572,-1.610538 q -0.00259,-0.107969 0.00805,-0.332288 z m 6.5384619,-0.977831 0.02399,-5.75e-4 0.0614,-0.276549 0.231934,-0.0055 0.07276,3.038128 -0.323907,0.0078 -0.01767,-0.737788 A 6.76,6.76 0 0 1 14.065484,17.206 q 0.0012,-0.115062 0.0068,-0.217225 l -0.016,3.83e-4 a 0.737,0.737 0 0 1 -0.530352,0.325792 1.107,1.107 0 0 1 -0.13377,0.01121 q -0.420879,0.01008 -0.661707,-0.272235 a 0.955,0.955 0 0 1 -0.174663,-0.31896 q -0.04517,-0.131955 -0.06398,-0.290551 a 2.081,2.081 0 0 1 -0.01381,-0.200727 q -0.01262,-0.526848 0.215323,-0.824391 a 0.768,0.768 0 0 1 0.538972,-0.299991 1.1,1.1 0 0 1 0.10685,-0.0076 0.983,0.983 0 0 1 0.248647,0.02405 0.856,0.856 0 0 1 0.135087,0.04378 0.718,0.718 0 0 1 0.295591,0.229988 z m -3.688528,-0.186739 0.239931,-0.0057 0.07128,0.30338 0.016,-3.83e-4 a 1.344,1.344 0 0 1 0.106047,-0.124575 q 0.0566,-0.05937 0.11462,-0.100773 a 0.597,0.597 0 0 1 0.09171,-0.05521 0.748,0.748 0 0 1 0.153806,-0.0517 q 0.0746,-0.01779 0.160451,-0.02485 a 1.459,1.459 0 0 1 0.08193,-0.004 0.995,0.995 0 0 1 0.202397,0.01416 q 0.124587,0.02302 0.220996,0.08073 a 0.558,0.558 0 0 1 0.07939,0.05712 0.533,0.533 0 0 1 0.167682,0.277064 0.816,0.816 0 0 1 0.02345,0.185492 q 0.01552,0.647814 -1.020421,0.704634 l -0.362633,0.01969 0.0032,0.132962 a 0.931,0.931 0 0 0 0.01223,0.134746 q 0.01165,0.06874 0.03496,0.123198 a 0.362,0.362 0 0 0 0.06969,0.111364 q 0.08927,0.09389 0.25868,0.108837 a 0.801,0.801 0 0 0 0.09109,0.0028 1.056,1.056 0 0 0 0.242212,-0.03581 q 0.111345,-0.02867 0.231113,-0.08156 a 2.171,2.171 0 0 0 0.128575,-0.0611 l 0.104909,0.245558 a 1.495,1.495 0 0 1 -0.285068,0.125862 1.702,1.702 0 0 1 -0.0576,0.01738 1.501,1.501 0 0 1 -0.376718,0.05804 1.369,1.369 0 0 1 -0.209299,-0.01 q -0.107377,-0.01443 -0.19419,-0.04736 a 0.552,0.552 0 0 1 -0.168418,-0.099 0.513,0.513 0 0 1 -0.136847,-0.200781 q -0.05538,-0.140715 -0.06015,-0.339658 z m -2.0458852,2.117591 0.093387,-0.277316 a 1.442,1.442 0 0 0 0.1572003,0.04825 1.723,1.723 0 0 0 0.078432,0.01713 1.339,1.339 0 0 0 0.1024257,0.01655 q 0.050153,0.0058 0.094189,0.0067 a 0.719,0.719 0 0 0 0.029016,3.05e-4 q 0.5788333,-0.01382 0.6280843,-0.672184 a 1.791,1.791 0 0 0 0.0038,-0.175141 q -0.0062,-0.258926 -0.07949,-0.437222 a 0.673,0.673 0 0 0 -0.09397,-0.164797 0.515,0.515 0 0 0 -0.3386689,-0.190946 0.784,0.784 0 0 0 -0.1382477,-0.0087 1.357,1.357 0 0 0 -0.372576,0.06394 1.676,1.676 0 0 0 -0.1735132,0.06417 l -0.00687,-0.286918 q 0.1826723,-0.0994 0.4482609,-0.119767 a 1.778,1.778 0 0 1 0.089926,-0.0041 q 0.4648662,-0.01113 0.7266412,0.268679 0.225851,0.241662 0.265994,0.664822 a 1.96,1.96 0 0 1 0.0083,0.13884 1.789,1.789 0 0 1 -0.02021,0.325578 q -0.02866,0.181737 -0.100211,0.326492 a 0.894,0.894 0 0 1 -0.118631,0.183893 0.84,0.84 0 0 1 -0.4535474,0.274938 1.273,1.273 0 0 1 -0.2762263,0.03562 1.463,1.463 0 0 1 -0.3097015,-0.02559 1.618,1.618 0 0 1 -0.090501,-0.01984 q -0.092596,-0.02379 -0.1533211,-0.05334 z m 5.5005792,-0.375808 a 0.431,0.431 0 0 0 0.12233,-0.112961 q 0.123965,-0.170017 0.131125,-0.539294 a 2.498,2.498 0 0 0 -5.38e-4,-0.106018 2.144,2.144 0 0 0 -0.01529,-0.220697 q -0.02936,-0.223361 -0.106591,-0.35755 a 0.489,0.489 0 0 0 -0.04352,-0.06298 0.47,0.47 0 0 0 -0.242787,-0.155232 q -0.106783,-0.03145 -0.244744,-0.02815 a 0.646,0.646 0 0 0 -0.182349,0.02937 0.466,0.466 0 0 0 -0.257304,0.199218 q -0.101235,0.158469 -0.124169,0.412091 a 1.858,1.858 0 0 0 -0.0068,0.217225 q 0.0095,0.395887 0.145353,0.597691 a 0.538,0.538 0 0 0 0.01552,0.02163 0.473,0.473 0 0 0 0.305487,0.183738 0.75,0.75 0 0 0 0.152291,0.01036 q 0.215939,-0.0052 0.351984,-0.08845 z m -3.11022,-0.890787 0.0046,0.193944 0.323572,-0.02175 q 0.386554,-0.02326 0.554967,-0.133325 a 0.346,0.346 0 0 0 0.158943,-0.254879 0.512,0.512 0 0 0 0.0041,-0.08012 q -0.0042,-0.17595 -0.113386,-0.265361 -0.09386,-0.07677 -0.249084,-0.08406 a 0.729,0.729 0 0 0 -0.05101,2.21e-4 0.893,0.893 0 0 0 -0.19149,0.02359 q -0.134243,0.03322 -0.231419,0.110573 a 0.541,0.541 0 0 0 -0.04798,0.04316 q -0.168,0.16907 -0.161913,0.465009 a 1.033,1.033 0 0 0 7.2e-5,0.003 z"
       id="back_labelLayer"
       style="vector-effect:non-scaling-stroke;fill:#777777;stroke:#777777"
       inkscape:connector-curvature="0" />
    <path
       d="m 21.302,0 v 3.993 h -0.177 v 4.005 h 0.177 v 4.004 h -0.177 v 4.005 h 0.177 V 20 h 5.821 v -0.177 h 4.004 V 20 h 4.005 1.816 v -3.993 h 0.177 V 12.002 H 36.948 V 7.998 h 0.177 V 3.993 H 36.948 V 0 Z"
       id="right_outsideCutPath"
       style="vector-effect:non-scaling-stroke;stroke:#ff0000;stroke-width:0.12"
       inkscape:connector-curvature="0" />
    <path
       d="m 31.115,10.831 h -0.26 V 9.723 A 0.733,0.733 0 0 0 30.847,9.608 Q 30.837,9.548 30.817,9.5 A 0.309,0.309 0 0 0 30.76,9.411 Q 30.683,9.327 30.535,9.312 A 0.688,0.688 0 0 0 30.462,9.308 0.785,0.785 0 0 0 30.315,9.321 q -0.16,0.03 -0.248,0.134 -0.113,0.134 -0.123,0.425 a 1.674,1.674 0 0 0 -10e-4,0.056 v 0.895 H 29.684 V 8.4 h 0.259 v 0.736 a 2.333,2.333 0 0 1 -0.002,0.09 Q 29.938,9.3 29.93,9.356 h 0.016 q 0.077,-0.123 0.218,-0.194 a 0.666,0.666 0 0 1 0.219,-0.065 0.842,0.842 0 0 1 0.104,-0.006 1.052,1.052 0 0 1 0.177,0.013 q 0.185,0.032 0.294,0.136 a 0.452,0.452 0 0 1 0.111,0.175 q 0.046,0.124 0.046,0.299 z M 28.74,9.119 h 0.592 V 9.283 L 29.015,9.32 q 0.037,0.046 0.067,0.116 a 0.799,0.799 0 0 1 0.011,0.027 0.499,0.499 0 0 1 0.03,0.119 0.641,0.641 0 0 1 0.004,0.08 q 0,0.252 -0.172,0.402 -0.154,0.135 -0.413,0.149 a 1.126,1.126 0 0 1 -0.058,0.001 0.834,0.834 0 0 1 -0.097,-0.005 0.704,0.704 0 0 1 -0.047,-0.007 0.462,0.462 0 0 0 -0.075,0.048 q -0.038,0.031 -0.06,0.066 a 0.195,0.195 0 0 0 -0.031,0.106 0.134,0.134 0 0 0 0.007,0.044 q 0.012,0.036 0.048,0.058 a 0.144,0.144 0 0 0 0.003,0.002 q 0.047,0.027 0.147,0.032 a 0.987,0.987 0 0 0 0.051,10e-4 h 0.304 a 1.062,1.062 0 0 1 0.161,0.012 q 0.084,0.013 0.152,0.04 a 0.469,0.469 0 0 1 0.114,0.066 0.379,0.379 0 0 1 0.141,0.241 0.57,0.57 0 0 1 0.008,0.099 0.562,0.562 0 0 1 -0.032,0.194 q -0.052,0.142 -0.187,0.234 a 0.618,0.618 0 0 1 -0.009,0.006 q -0.159,0.104 -0.42,0.135 A 2.056,2.056 0 0 1 28.416,11.6 q -0.336,0 -0.518,-0.125 -0.17,-0.117 -0.181,-0.324 a 0.548,0.548 0 0 1 -10e-4,-0.029 q 0,-0.156 0.1,-0.27 a 0.453,0.453 0 0 1 0.156,-0.114 0.642,0.642 0 0 1 0.126,-0.041 0.269,0.269 0 0 1 -0.105,-0.085 0.32,0.32 0 0 1 -0.005,-0.007 q -0.045,-0.063 -0.045,-0.146 0,-0.093 0.05,-0.164 a 0.371,0.371 0 0 1 0.049,-0.055 q 0.044,-0.041 0.109,-0.081 A 0.455,0.455 0 0 1 27.953,10.001 0.564,0.564 0 0 1 27.934,9.973 0.536,0.536 0 0 1 27.852,9.715 0.654,0.654 0 0 1 27.851,9.673 0.749,0.749 0 0 1 27.87,9.496 0.493,0.493 0 0 1 28.02,9.24 0.551,0.551 0 0 1 28.231,9.123 Q 28.315,9.098 28.416,9.09 a 1.146,1.146 0 0 1 0.082,-0.003 0.994,0.994 0 0 1 0.131,0.009 0.757,0.757 0 0 1 0.111,0.023 z m 3.695,1.498 v 0.199 a 0.255,0.255 0 0 1 -0.03,0.012 q -0.038,0.012 -0.094,0.021 a 1.124,1.124 0 0 1 -0.073,0.01 q -0.04,0.003 -0.075,0.003 A 0.677,0.677 0 0 1 31.964,10.836 Q 31.744,10.768 31.687,10.53 A 0.815,0.815 0 0 1 31.666,10.339 V 9.32 H 31.421 V 9.195 l 0.245,-0.108 0.11,-0.365 h 0.15 v 0.397 h 0.497 V 9.32 h -0.497 v 1.008 a 0.522,0.522 0 0 0 0.007,0.092 q 0.009,0.05 0.029,0.09 a 0.252,0.252 0 0 0 0.037,0.056 0.241,0.241 0 0 0 0.148,0.078 0.347,0.347 0 0 0 0.054,0.004 q 0.069,0 0.133,-0.01 0.061,-0.009 0.098,-0.02 a 0.389,0.389 0 0 0 0.003,-10e-4 z M 26.801,9.106 26.765,9.347 A 1.143,1.143 0 0 0 26.683,9.332 Q 26.626,9.323 26.577,9.323 a 0.449,0.449 0 0 0 -0.332,0.144 0.615,0.615 0 0 0 -0.023,0.025 q -0.148,0.169 -0.148,0.42 v 0.919 H 25.815 V 9.119 h 0.214 l 0.03,0.317 h 0.012 a 0.876,0.876 0 0 1 0.098,-0.14 0.669,0.669 0 0 1 0.132,-0.118 q 0.134,-0.091 0.295,-0.091 a 1.191,1.191 0 0 1 0.107,0.005 0.869,0.869 0 0 1 0.098,0.014 z m 0.579,0.013 v 1.712 H 27.121 V 9.119 Z m 1.271,1.673 H 28.34 a 0.596,0.596 0 0 0 -0.108,0.009 q -0.101,0.019 -0.167,0.076 a 0.273,0.273 0 0 0 -0.09,0.155 0.415,0.415 0 0 0 -0.009,0.087 0.261,0.261 0 0 0 0.018,0.096 q 0.027,0.07 0.1,0.115 0.116,0.071 0.333,0.072 a 0.948,0.948 0 0 0 0.003,0 q 0.326,0 0.483,-0.098 a 0.378,0.378 0 0 0 0.088,-0.074 0.284,0.284 0 0 0 0.069,-0.191 0.351,0.351 0 0 0 -0.006,-0.07 q -0.008,-0.04 -0.027,-0.07 A 0.163,0.163 0 0 0 28.974,10.846 Q 28.888,10.792 28.651,10.792 Z M 28.107,9.667 a 0.506,0.506 0 0 0 0.01,0.106 q 0.023,0.103 0.092,0.166 a 0.335,0.335 0 0 0 0.135,0.073 q 0.065,0.019 0.147,0.019 a 0.565,0.565 0 0 0 0.148,-0.017 q 0.17,-0.046 0.215,-0.213 a 0.525,0.525 0 0 0 0.017,-0.139 q 0,-0.385 -0.384,-0.385 -0.14,0 -0.231,0.057 A 0.299,0.299 0 0 0 28.205,9.375 0.311,0.311 0 0 0 28.13,9.502 q -0.023,0.071 -0.023,0.165 z m -1.004,-1.06 a 0.287,0.287 0 0 0 -0.004,0.048 0.306,0.306 0 0 0 0.002,0.029 q 0.002,0.026 0.009,0.048 a 0.134,0.134 0 0 0 0.033,0.053 0.146,0.146 0 0 0 0.053,0.034 0.165,0.165 0 0 0 0.056,0.009 q 0.063,0 0.108,-0.043 a 0.127,0.127 0 0 0 0.025,-0.033 q 0.02,-0.038 0.02,-0.097 A 0.297,0.297 0 0 0 27.404,8.627 Q 27.402,8.601 27.395,8.58 A 0.131,0.131 0 0 0 27.36,8.525 0.153,0.153 0 0 0 27.252,8.483 a 0.198,0.198 0 0 0 -0.013,0 0.15,0.15 0 0 0 -0.096,0.041 0.121,0.121 0 0 0 -0.027,0.038 q -0.009,0.02 -0.013,0.045 z"
       id="right_labelLayer"
       style="vector-effect:non-scaling-stroke;fill:#777777;stroke:#777777"
       inkscape:connector-curvature="0" />
    <path
       d="m 37.427,24.302 v 5.821 H 37.25 v 4.004 h 0.177 v 4.005 1.816 h 4.316 v 0.177 h 4.005 v -0.177 h 4.004 v 0.177 h 4.005 v -0.177 h 4.005 0.311 v -5.821 h 0.177 v -4.004 h -0.177 v -4.005 -1.816 h -4.316 v -0.177 h -4.005 v 0.177 h -4.004 v -0.177 h -4.005 v 0.177 h -4.005 z"
       id="bottom_outsideCutPath"
       style="vector-effect:non-scaling-stroke;stroke:#ff0000;stroke-width:0.12"
       inkscape:connector-curvature="0" />
    <path
       d="m 53.014,33.325 h -0.259 v -1.114 q 0,-0.205 -0.088,-0.307 A 0.273,0.273 0 0 0 52.54,31.822 q -0.063,-0.02 -0.145,-0.02 -0.242,0 -0.358,0.139 a 0.429,0.429 0 0 0 -0.072,0.131 q -0.043,0.121 -0.043,0.297 v 0.956 h -0.26 v -1.114 q 0,-0.205 -0.087,-0.307 -0.088,-0.102 -0.273,-0.102 a 0.644,0.644 0 0 0 -0.134,0.012 q -0.144,0.031 -0.223,0.134 -0.103,0.132 -0.113,0.418 a 1.806,1.806 0 0 0 -10e-4,0.061 v 0.898 h -0.259 v -1.713 h 0.211 l 0.042,0.235 h 0.012 a 0.51,0.51 0 0 1 0.208,-0.195 0.616,0.616 0 0 1 0.243,-0.069 0.744,0.744 0 0 1 0.056,-0.002 0.849,0.849 0 0 1 0.191,0.02 q 0.243,0.056 0.334,0.271 h 0.012 q 0.077,-0.135 0.222,-0.213 a 0.656,0.656 0 0 1 0.241,-0.073 0.819,0.819 0 0 1 0.09,-0.005 0.902,0.902 0 0 1 0.164,0.014 q 0.091,0.017 0.162,0.054 a 0.427,0.427 0 0 1 0.11,0.081 q 0.105,0.109 0.133,0.313 a 1.19,1.19 0 0 1 0.011,0.165 z m -10.269,-0.22 h -0.018 l -0.055,0.22 h -0.186 v -2.431 h 0.259 v 0.59 a 5.408,5.408 0 0 1 -0.003,0.183 q -0.003,0.086 -0.008,0.163 a 3.198,3.198 0 0 1 -0.001,0.011 h 0.012 a 0.59,0.59 0 0 1 0.431,-0.25 0.886,0.886 0 0 1 0.107,-0.007 0.793,0.793 0 0 1 0.223,0.03 0.593,0.593 0 0 1 0.301,0.201 0.764,0.764 0 0 1 0.134,0.258 q 0.033,0.106 0.045,0.234 a 1.665,1.665 0 0 1 0.008,0.16 q 0,0.298 -0.094,0.502 a 0.729,0.729 0 0 1 -0.095,0.154 0.614,0.614 0 0 1 -0.436,0.229 0.88,0.88 0 0 1 -0.086,0.004 0.787,0.787 0 0 1 -0.198,-0.024 0.685,0.685 0 0 1 -0.108,-0.038 0.574,0.574 0 0 1 -0.232,-0.189 z m 4.422,0.006 v 0.198 a 0.255,0.255 0 0 1 -0.03,0.012 q -0.038,0.013 -0.094,0.022 a 1.124,1.124 0 0 1 -0.073,0.009 q -0.04,0.004 -0.075,0.004 a 0.677,0.677 0 0 1 -0.199,-0.027 q -0.22,-0.067 -0.277,-0.306 a 0.815,0.815 0 0 1 -0.021,-0.19 v -1.019 h -0.245 v -0.125 l 0.245,-0.108 0.11,-0.365 h 0.15 v 0.396 h 0.497 v 0.202 h -0.497 v 1.008 a 0.522,0.522 0 0 0 0.007,0.092 q 0.009,0.05 0.029,0.09 a 0.252,0.252 0 0 0 0.037,0.055 0.241,0.241 0 0 0 0.148,0.079 0.347,0.347 0 0 0 0.054,0.004 q 0.069,0 0.133,-0.01 0.061,-0.01 0.098,-0.02 a 0.389,0.389 0 0 0 0.003,-0.001 z m 1.13,0 v 0.198 a 0.255,0.255 0 0 1 -0.03,0.012 q -0.038,0.013 -0.094,0.022 a 1.124,1.124 0 0 1 -0.074,0.009 q -0.039,0.004 -0.074,0.004 a 0.677,0.677 0 0 1 -0.2,-0.027 q -0.219,-0.067 -0.277,-0.306 a 0.815,0.815 0 0 1 -0.02,-0.19 v -1.019 h -0.245 v -0.125 l 0.245,-0.108 0.109,-0.365 h 0.15 v 0.396 h 0.497 v 0.202 h -0.497 v 1.008 a 0.522,0.522 0 0 0 0.008,0.092 q 0.009,0.05 0.029,0.09 a 0.252,0.252 0 0 0 0.037,0.055 0.241,0.241 0 0 0 0.148,0.079 0.347,0.347 0 0 0 0.053,0.004 q 0.069,0 0.133,-0.01 0.061,-0.01 0.098,-0.02 a 0.389,0.389 0 0 0 0.004,-0.001 z m -2.396,-0.383 a 1.34,1.34 0 0 0 0.024,-0.261 q 0,-0.408 -0.212,-0.647 a 0.679,0.679 0 0 0 -0.315,-0.203 0.872,0.872 0 0 0 -0.256,-0.036 1.007,1.007 0 0 0 -0.181,0.016 0.686,0.686 0 0 0 -0.4,0.218 q -0.209,0.233 -0.209,0.652 a 1.298,1.298 0 0 0 0.016,0.21 0.96,0.96 0 0 0 0.08,0.262 q 0.097,0.202 0.275,0.309 a 0.722,0.722 0 0 0 0.166,0.074 0.833,0.833 0 0 0 0.242,0.034 1.007,1.007 0 0 0 0.176,-0.014 0.691,0.691 0 0 0 0.407,-0.221 0.724,0.724 0 0 0 0.086,-0.118 q 0.07,-0.121 0.101,-0.275 z m 4.192,0 a 1.34,1.34 0 0 0 0.024,-0.261 q 0,-0.408 -0.212,-0.647 a 0.679,0.679 0 0 0 -0.315,-0.203 0.872,0.872 0 0 0 -0.256,-0.036 1.007,1.007 0 0 0 -0.181,0.016 0.686,0.686 0 0 0 -0.4,0.218 q -0.209,0.233 -0.209,0.652 a 1.298,1.298 0 0 0 0.016,0.21 0.96,0.96 0 0 0 0.081,0.262 q 0.096,0.202 0.275,0.309 a 0.722,0.722 0 0 0 0.165,0.074 0.833,0.833 0 0 0 0.242,0.034 1.007,1.007 0 0 0 0.176,-0.014 0.691,0.691 0 0 0 0.407,-0.221 0.724,0.724 0 0 0 0.086,-0.118 q 0.071,-0.121 0.101,-0.275 z M 44.62,32.467 q 0,0.328 0.132,0.5 0.131,0.172 0.385,0.172 0.255,0 0.387,-0.171 a 0.557,0.557 0 0 0 0.087,-0.169 q 0.025,-0.078 0.037,-0.173 a 1.366,1.366 0 0 0 0.008,-0.159 1.294,1.294 0 0 0 -0.012,-0.184 q -0.014,-0.094 -0.042,-0.17 a 0.534,0.534 0 0 0 -0.078,-0.142 0.427,0.427 0 0 0 -0.265,-0.158 0.654,0.654 0 0 0 -0.125,-0.011 0.617,0.617 0 0 0 -0.153,0.018 0.413,0.413 0 0 0 -0.231,0.149 q -0.093,0.12 -0.12,0.325 a 1.371,1.371 0 0 0 -0.01,0.173 z m 4.192,0 q 0,0.328 0.132,0.5 0.131,0.172 0.386,0.172 0.254,0 0.386,-0.171 a 0.557,0.557 0 0 0 0.087,-0.169 q 0.026,-0.078 0.037,-0.173 a 1.366,1.366 0 0 0 0.008,-0.159 1.294,1.294 0 0 0 -0.012,-0.184 q -0.013,-0.094 -0.042,-0.17 a 0.534,0.534 0 0 0 -0.078,-0.142 0.427,0.427 0 0 0 -0.265,-0.158 0.654,0.654 0 0 0 -0.124,-0.011 0.617,0.617 0 0 0 -0.154,0.018 0.413,0.413 0 0 0 -0.231,0.149 q -0.093,0.12 -0.119,0.325 a 1.371,1.371 0 0 0 -0.011,0.173 z m -5.849,-0.601 a 0.345,0.345 0 0 0 -0.101,0.088 q -0.117,0.152 -0.117,0.513 0,0.307 0.087,0.465 a 0.391,0.391 0 0 0 0.034,0.052 q 0.107,0.139 0.332,0.153 a 0.834,0.834 0 0 0 0.054,0.002 0.517,0.517 0 0 0 0.146,-0.02 0.373,0.373 0 0 0 0.21,-0.154 q 0.117,-0.174 0.117,-0.501 a 1.532,1.532 0 0 0 -0.009,-0.175 q -0.024,-0.205 -0.108,-0.323 a 0.378,0.378 0 0 0 -0.241,-0.153 0.6,0.6 0 0 0 -0.122,-0.011 q -0.172,0 -0.282,0.064 z"
       id="bottom_labelLayer"
       style="vector-effect:non-scaling-stroke;fill:#777777;stroke:#777777"
       inkscape:connector-curvature="0" />
    <text
       xml:space="preserve"
       style="font-style:normal;font-weight:normal;font-size:0.16666672px;line-height:1.25;font-family:sans-serif;letter-spacing:0px;word-spacing:0px;fill:#000000;fill-opacity:1;stroke:none;stroke-width:0.00260417mm"
       x="46.075756"
       y="35.874481"
       id="text828"><tspan
         sodipodi:role="line"
         id="tspan826"
         x="46.075756"
         y="36.021942"
         style="stroke-width:0.00260417mm" /></text>
    <text
       xml:space="preserve"
       style="font-style:normal;font-weight:normal;font-size:1.37198651px;line-height:1.25;font-family:sans-serif;letter-spacing:0px;word-spacing:0px;fill:#000000;fill-opacity:1;stroke:none;stroke-width:0.01286239mm"
       x="27.769545"
       y="55.923664"
       id="text834"
       transform="scale(1.5305677,0.65335235)"><tspan
         sodipodi:role="line"
         id="tspan832"
         x="27.769545"
         y="55.923664"
         style="font-size:3.84156132px;stroke-width:0.01286239mm">Top</tspan></text>
    <text
       xml:space="preserve"
       style="font-style:normal;font-weight:normal;font-size:0.27777785px;line-height:1.25;font-family:sans-serif;letter-spacing:0px;word-spacing:0px;fill:#000000;fill-opacity:1;stroke:none;stroke-width:0.00260417mm"
       x="26.523314"
       y="50.666332"
       id="text838"><tspan
         sodipodi:role="line"
         id="tspan836"
         x="26.523314"
         y="50.666332"
         style="stroke-width:0.00260417mm">+</tspan></text>
    <path
       style="fill:none;stroke:#000000;stroke-width:0.05208333;stroke-linecap:butt;stroke-linejoin:miter;stroke-opacity:1;stroke-miterlimit:4;stroke-dasharray:none"
       d="M 40.996101,32.550953 H 54.461097 V 32.43073"
       id="path842"
       inkscape:connector-curvature="0" />
  </g>
</svg>
