<svg width="58.25in" height="40.125in" viewBox="0 0 58.25 40.125" xmlns="http://www.w3.org/2000/svg" version="1.1" preserveAspectRatio="xMidYMid meet"><g id="svgGroup" stroke-linecap="round" fill-rule="evenodd" font-size="9pt" stroke="#000" stroke-width="0.25mm" fill="none" style="stroke:#000;stroke-width:0.25mm;fill:none"><path d="M 0 20.125 L 0 24.118 L 0.177 24.118 L 0.177 28.123 L 0 28.123 L 0 32.127 L 0.177 32.127 L 0.177 36.132 L 0 36.132 L 0 40.125 L 4.493 40.125 L 4.493 39.948 L 8.498 39.948 L 8.498 40.125 L 12.502 40.125 L 12.502 39.948 L 16.507 39.948 L 16.507 40.125 L 20.512 40.125 L 21 40.125 L 21 36.132 L 20.823 36.132 L 20.823 32.127 L 21 32.127 L 21 28.123 L 20.823 28.123 L 20.823 24.118 L 21 24.118 L 21 20.125 L 0 20.125 Z" id="front_outsideCutPath" stroke="#FF0000" stroke-width="0.12" style="stroke:#FF0000;stroke-width:0.12" vector-effect="non-scaling-stroke"/><path d="M 13.415 31.636 L 13.091 31.636 L 13.091 30.251 A 0.916 0.916 0 0 0 13.08 30.107 Q 13.055 29.951 12.972 29.86 A 0.366 0.366 0 0 0 12.822 29.765 Q 12.728 29.731 12.599 29.731 Q 12.263 29.731 12.106 29.913 Q 11.95 30.095 11.95 30.513 L 11.95 31.636 L 11.626 31.636 L 11.626 29.495 L 11.89 29.495 L 11.942 29.788 L 11.958 29.788 A 0.657 0.657 0 0 1 12.215 29.554 A 0.79 0.79 0 0 1 12.237 29.543 A 0.878 0.878 0 0 1 12.55 29.46 A 1.062 1.062 0 0 1 12.638 29.456 Q 12.894 29.456 13.066 29.538 A 0.583 0.583 0 0 1 13.22 29.643 Q 13.368 29.784 13.404 30.056 A 1.415 1.415 0 0 1 13.415 30.239 L 13.415 31.636 Z M 7.187 29.495 L 7.187 29.747 L 6.642 29.747 L 6.642 31.636 L 6.317 31.636 L 6.317 29.747 L 5.935 29.747 L 5.935 29.601 L 6.317 29.483 L 6.317 29.364 A 1.314 1.314 0 0 1 6.348 29.066 Q 6.443 28.66 6.831 28.59 A 0.985 0.985 0 0 1 7.007 28.575 A 1.044 1.044 0 0 1 7.155 28.586 Q 7.226 28.597 7.306 28.616 A 2.099 2.099 0 0 1 7.405 28.644 L 7.321 28.903 A 1.574 1.574 0 0 0 7.199 28.869 Q 7.137 28.854 7.083 28.848 A 0.697 0.697 0 0 0 7.001 28.843 A 0.437 0.437 0 0 0 6.896 28.855 A 0.281 0.281 0 0 0 6.729 28.965 A 0.375 0.375 0 0 0 6.68 29.065 Q 6.647 29.162 6.642 29.308 A 1.531 1.531 0 0 0 6.642 29.356 L 6.642 29.495 L 7.187 29.495 Z M 15.065 31.368 L 15.065 31.616 Q 15.018 31.639 14.93 31.655 A 1.214 1.214 0 0 1 14.91 31.658 Q 14.814 31.674 14.737 31.675 A 0.831 0.831 0 0 1 14.726 31.675 A 0.847 0.847 0 0 1 14.476 31.641 Q 14.104 31.527 14.104 31.02 L 14.104 29.747 L 13.798 29.747 L 13.798 29.591 L 14.104 29.456 L 14.241 28.999 L 14.429 28.999 L 14.429 29.495 L 15.05 29.495 L 15.05 29.747 L 14.429 29.747 L 14.429 31.007 Q 14.429 31.143 14.474 31.234 A 0.314 0.314 0 0 0 14.521 31.304 A 0.301 0.301 0 0 0 14.706 31.402 A 0.433 0.433 0 0 0 14.772 31.407 A 1.065 1.065 0 0 0 14.928 31.396 A 0.981 0.981 0 0 0 14.938 31.394 Q 15.015 31.382 15.061 31.369 A 0.488 0.488 0 0 0 15.065 31.368 Z M 8.81 29.479 L 8.765 29.78 Q 8.632 29.751 8.53 29.751 A 0.562 0.562 0 0 0 8.115 29.93 A 0.768 0.768 0 0 0 8.086 29.962 A 0.74 0.74 0 0 0 7.907 30.378 A 0.984 0.984 0 0 0 7.901 30.487 L 7.901 31.636 L 7.577 31.636 L 7.577 29.495 L 7.845 29.495 L 7.882 29.892 L 7.897 29.892 A 1.095 1.095 0 0 1 8.02 29.717 A 0.836 0.836 0 0 1 8.185 29.569 A 0.646 0.646 0 0 1 8.554 29.456 A 1.488 1.488 0 0 1 8.687 29.462 A 1.086 1.086 0 0 1 8.81 29.479 Z M 11.028 30.889 A 1.675 1.675 0 0 0 11.058 30.563 Q 11.058 30.054 10.793 29.755 A 0.849 0.849 0 0 0 10.399 29.501 A 1.089 1.089 0 0 0 10.079 29.456 A 1.259 1.259 0 0 0 9.853 29.475 A 0.858 0.858 0 0 0 9.353 29.748 A 0.896 0.896 0 0 0 9.243 29.901 Q 9.091 30.165 9.091 30.563 Q 9.091 30.901 9.212 31.153 A 1.066 1.066 0 0 0 9.236 31.199 A 0.878 0.878 0 0 0 9.556 31.54 A 0.903 0.903 0 0 0 9.763 31.632 A 1.041 1.041 0 0 0 10.065 31.675 A 1.259 1.259 0 0 0 10.285 31.656 A 0.864 0.864 0 0 0 10.794 31.381 A 0.904 0.904 0 0 0 10.902 31.233 Q 10.989 31.083 11.028 30.889 Z M 9.427 30.563 A 1.642 1.642 0 0 0 9.442 30.798 Q 9.46 30.917 9.496 31.013 A 0.68 0.68 0 0 0 9.591 31.188 A 0.531 0.531 0 0 0 9.937 31.392 A 0.805 0.805 0 0 0 10.073 31.403 A 0.753 0.753 0 0 0 10.272 31.379 A 0.524 0.524 0 0 0 10.557 31.189 Q 10.722 30.976 10.722 30.563 A 1.618 1.618 0 0 0 10.706 30.333 Q 10.689 30.216 10.654 30.12 A 0.668 0.668 0 0 0 10.557 29.943 A 0.533 0.533 0 0 0 10.225 29.745 A 0.818 0.818 0 0 0 10.069 29.731 A 0.772 0.772 0 0 0 9.877 29.754 A 0.516 0.516 0 0 0 9.589 29.94 A 0.67 0.67 0 0 0 9.485 30.142 Q 9.454 30.234 9.439 30.348 A 1.713 1.713 0 0 0 9.427 30.563 Z" id="front_labelLayer" stroke="#777777" fill="#777777" style="stroke:#777777;fill:#777777" vector-effect="non-scaling-stroke"/><path d="M 21.302 20.125 L 21.302 24.118 L 21.125 24.118 L 21.125 28.123 L 21.302 28.123 L 21.302 32.127 L 21.125 32.127 L 21.125 36.132 L 21.302 36.132 L 21.302 40.125 L 27.123 40.125 L 27.123 39.948 L 31.127 39.948 L 31.127 40.125 L 35.132 40.125 L 36.948 40.125 L 36.948 36.132 L 37.125 36.132 L 37.125 32.127 L 36.948 32.127 L 36.948 28.123 L 37.125 28.123 L 37.125 24.118 L 36.948 24.118 L 36.948 20.125 L 21.302 20.125 Z" id="left_outsideCutPath" stroke="#FF0000" stroke-width="0.12" style="stroke:#FF0000;stroke-width:0.12" vector-effect="non-scaling-stroke"/><path d="M 30.263 29.621 L 30.263 29.823 L 29.827 29.823 L 29.827 31.334 L 29.568 31.334 L 29.568 29.823 L 29.262 29.823 L 29.262 29.705 L 29.568 29.612 L 29.568 29.516 A 1.051 1.051 0 0 1 29.593 29.278 Q 29.668 28.953 29.979 28.897 A 0.788 0.788 0 0 1 30.12 28.885 A 0.835 0.835 0 0 1 30.238 28.894 Q 30.295 28.902 30.359 28.918 A 1.679 1.679 0 0 1 30.438 28.94 L 30.371 29.148 Q 30.265 29.113 30.18 29.103 A 0.558 0.558 0 0 0 30.115 29.099 A 0.35 0.35 0 0 0 30.031 29.109 A 0.225 0.225 0 0 0 29.898 29.197 A 0.3 0.3 0 0 0 29.858 29.277 Q 29.832 29.355 29.828 29.471 A 1.225 1.225 0 0 0 29.827 29.51 L 29.827 29.621 L 30.263 29.621 Z M 29.049 30.36 L 29.049 30.524 L 27.87 30.524 Q 27.877 30.826 28.022 30.982 A 0.471 0.471 0 0 0 28.269 31.121 A 0.714 0.714 0 0 0 28.429 31.138 A 1.37 1.37 0 0 0 28.942 31.037 A 1.57 1.57 0 0 0 28.976 31.023 L 28.976 31.254 A 1.557 1.557 0 0 1 28.834 31.307 A 1.191 1.191 0 0 1 28.716 31.339 Q 28.62 31.359 28.494 31.364 A 2.113 2.113 0 0 1 28.42 31.365 A 1.008 1.008 0 0 1 28.167 31.335 A 0.714 0.714 0 0 1 27.82 31.134 A 0.763 0.763 0 0 1 27.638 30.798 Q 27.606 30.679 27.602 30.538 A 1.481 1.481 0 0 1 27.601 30.491 A 1.362 1.362 0 0 1 27.626 30.221 Q 27.672 29.992 27.805 29.834 A 0.665 0.665 0 0 1 28.289 29.592 A 0.917 0.917 0 0 1 28.352 29.59 A 0.79 0.79 0 0 1 28.575 29.62 A 0.601 0.601 0 0 1 28.862 29.802 A 0.725 0.725 0 0 1 29.026 30.133 A 1.056 1.056 0 0 1 29.049 30.36 Z M 31.363 31.119 L 31.363 31.318 A 0.255 0.255 0 0 1 31.333 31.33 Q 31.295 31.342 31.239 31.352 A 1.124 1.124 0 0 1 31.166 31.361 Q 31.126 31.365 31.091 31.365 A 0.677 0.677 0 0 1 30.892 31.338 Q 30.672 31.27 30.615 31.032 A 0.815 0.815 0 0 1 30.595 30.841 L 30.595 29.823 L 30.349 29.823 L 30.349 29.698 L 30.595 29.59 L 30.704 29.224 L 30.854 29.224 L 30.854 29.621 L 31.351 29.621 L 31.351 29.823 L 30.854 29.823 L 30.854 30.83 A 0.522 0.522 0 0 0 30.861 30.922 Q 30.87 30.972 30.89 31.012 A 0.252 0.252 0 0 0 30.927 31.068 A 0.241 0.241 0 0 0 31.075 31.147 A 0.347 0.347 0 0 0 31.129 31.151 Q 31.198 31.151 31.262 31.141 Q 31.323 31.131 31.36 31.12 A 0.389 0.389 0 0 0 31.363 31.119 Z M 27.146 28.902 L 27.146 31.334 L 26.887 31.334 L 26.887 28.902 L 27.146 28.902 Z M 27.876 30.313 L 28.771 30.313 A 0.884 0.884 0 0 0 28.76 30.171 Q 28.748 30.095 28.721 30.034 A 0.401 0.401 0 0 0 28.662 29.937 A 0.355 0.355 0 0 0 28.448 29.816 A 0.533 0.533 0 0 0 28.349 29.807 A 0.511 0.511 0 0 0 28.202 29.827 A 0.395 0.395 0 0 0 28.02 29.941 A 0.512 0.512 0 0 0 27.918 30.113 Q 27.893 30.184 27.881 30.269 A 0.98 0.98 0 0 0 27.876 30.313 Z" id="left_labelLayer" stroke="#777777" fill="#777777" style="stroke:#777777;fill:#777777" vector-effect="non-scaling-stroke"/><path d="M 0 0 L 0 3.993 L 0.177 3.993 L 0.177 7.998 L 0 7.998 L 0 12.002 L 0.177 12.002 L 0.177 16.007 L 0 16.007 L 0 20 L 4.493 20 L 4.493 19.823 L 8.498 19.823 L 8.498 20 L 12.502 20 L 12.502 19.823 L 16.507 19.823 L 16.507 20 L 20.512 20 L 21 20 L 21 16.007 L 20.823 16.007 L 20.823 12.002 L 21 12.002 L 21 7.998 L 20.823 7.998 L 20.823 3.993 L 21 3.993 L 21 0 L 0 0 Z" id="back_outsideCutPath" stroke="#FF0000" stroke-width="0.12" style="stroke:#FF0000;stroke-width:0.12" vector-effect="non-scaling-stroke"/><path d="M 13.238 10.404 L 13.254 10.404 A 1.919 1.919 0 0 1 13.301 10.34 Q 13.381 10.237 13.51 10.092 L 14.201 9.359 L 14.586 9.359 L 13.719 10.271 L 14.646 11.5 L 14.254 11.5 L 13.498 10.488 L 13.254 10.699 L 13.254 11.5 L 12.934 11.5 L 12.934 8.461 L 13.254 8.461 L 13.254 10.072 Q 13.254 10.18 13.238 10.404 Z M 6.678 11.225 L 6.654 11.225 L 6.586 11.5 L 6.354 11.5 L 6.354 8.461 L 6.678 8.461 L 6.678 9.199 A 6.76 6.76 0 0 1 6.674 9.428 Q 6.67 9.543 6.662 9.645 L 6.678 9.645 A 0.737 0.737 0 0 1 7.216 9.332 A 1.107 1.107 0 0 1 7.35 9.324 Q 7.771 9.324 8.005 9.612 A 0.955 0.955 0 0 1 8.172 9.935 Q 8.214 10.068 8.229 10.227 A 2.081 2.081 0 0 1 8.238 10.428 Q 8.238 10.955 8.003 11.247 A 0.768 0.768 0 0 1 7.457 11.534 A 1.1 1.1 0 0 1 7.35 11.539 A 0.983 0.983 0 0 1 7.102 11.509 A 0.856 0.856 0 0 1 6.968 11.462 A 0.718 0.718 0 0 1 6.678 11.225 Z M 10.361 11.5 L 10.121 11.5 L 10.057 11.195 L 10.041 11.195 A 1.344 1.344 0 0 1 9.932 11.317 Q 9.874 11.375 9.815 11.415 A 0.597 0.597 0 0 1 9.722 11.468 A 0.748 0.748 0 0 1 9.567 11.516 Q 9.492 11.532 9.406 11.537 A 1.459 1.459 0 0 1 9.324 11.539 A 0.995 0.995 0 0 1 9.122 11.52 Q 8.998 11.494 8.903 11.434 A 0.558 0.558 0 0 1 8.825 11.375 A 0.533 0.533 0 0 1 8.664 11.094 A 0.816 0.816 0 0 1 8.645 10.908 Q 8.645 10.26 9.682 10.228 L 10.045 10.217 L 10.045 10.084 A 0.931 0.931 0 0 0 10.036 9.949 Q 10.026 9.88 10.004 9.825 A 0.362 0.362 0 0 0 9.937 9.712 Q 9.85 9.616 9.681 9.597 A 0.801 0.801 0 0 0 9.59 9.592 A 1.056 1.056 0 0 0 9.347 9.622 Q 9.235 9.648 9.114 9.698 A 2.171 2.171 0 0 0 8.984 9.756 L 8.885 9.508 A 1.495 1.495 0 0 1 9.173 9.389 A 1.702 1.702 0 0 1 9.231 9.373 A 1.501 1.501 0 0 1 9.609 9.324 A 1.369 1.369 0 0 1 9.818 9.339 Q 9.925 9.356 10.011 9.391 A 0.552 0.552 0 0 1 10.177 9.494 A 0.513 0.513 0 0 1 10.309 9.698 Q 10.361 9.84 10.361 10.039 L 10.361 11.5 Z M 12.457 9.432 L 12.357 9.707 A 1.442 1.442 0 0 0 12.201 9.655 A 1.723 1.723 0 0 0 12.123 9.636 A 1.339 1.339 0 0 0 12.021 9.617 Q 11.971 9.61 11.927 9.608 A 0.719 0.719 0 0 0 11.898 9.607 Q 11.319 9.607 11.254 10.264 A 1.791 1.791 0 0 0 11.246 10.439 Q 11.246 10.698 11.315 10.878 A 0.673 0.673 0 0 0 11.405 11.045 A 0.515 0.515 0 0 0 11.739 11.244 A 0.784 0.784 0 0 0 11.877 11.256 A 1.357 1.357 0 0 0 12.251 11.201 A 1.676 1.676 0 0 0 12.426 11.141 L 12.426 11.428 Q 12.241 11.523 11.975 11.537 A 1.778 1.778 0 0 1 11.885 11.539 Q 11.42 11.539 11.165 11.253 Q 10.945 11.006 10.915 10.582 A 1.96 1.96 0 0 1 10.91 10.443 A 1.789 1.789 0 0 1 10.938 10.118 Q 10.971 9.937 11.046 9.794 A 0.894 0.894 0 0 1 11.169 9.613 A 0.84 0.84 0 0 1 11.629 9.349 A 1.273 1.273 0 0 1 11.906 9.32 A 1.463 1.463 0 0 1 12.215 9.353 A 1.618 1.618 0 0 1 12.305 9.375 Q 12.397 9.401 12.457 9.432 Z M 6.949 9.676 A 0.431 0.431 0 0 0 6.824 9.786 Q 6.696 9.953 6.68 10.322 A 2.498 2.498 0 0 0 6.678 10.428 A 2.144 2.144 0 0 0 6.688 10.649 Q 6.712 10.873 6.786 11.009 A 0.489 0.489 0 0 0 6.828 11.073 A 0.47 0.47 0 0 0 7.067 11.234 Q 7.173 11.268 7.311 11.268 A 0.646 0.646 0 0 0 7.494 11.243 A 0.466 0.466 0 0 0 7.756 11.05 Q 7.861 10.894 7.89 10.641 A 1.858 1.858 0 0 0 7.902 10.424 Q 7.902 10.028 7.771 9.823 A 0.538 0.538 0 0 0 7.756 9.801 A 0.473 0.473 0 0 0 7.455 9.61 A 0.75 0.75 0 0 0 7.303 9.596 Q 7.087 9.596 6.949 9.676 Z M 10.037 10.641 L 10.037 10.447 L 9.713 10.461 Q 9.326 10.475 9.155 10.581 A 0.346 0.346 0 0 0 8.99 10.832 A 0.512 0.512 0 0 0 8.984 10.912 Q 8.984 11.088 9.091 11.18 Q 9.183 11.259 9.338 11.27 A 0.729 0.729 0 0 0 9.389 11.271 A 0.893 0.893 0 0 0 9.581 11.252 Q 9.716 11.222 9.815 11.147 A 0.541 0.541 0 0 0 9.864 11.105 Q 10.036 10.94 10.037 10.644 A 1.033 1.033 0 0 0 10.037 10.641 Z" id="back_labelLayer" stroke="#777777" fill="#777777" style="stroke:#777777;fill:#777777" vector-effect="non-scaling-stroke"/><path d="M 21.302 0 L 21.302 3.993 L 21.125 3.993 L 21.125 7.998 L 21.302 7.998 L 21.302 12.002 L 21.125 12.002 L 21.125 16.007 L 21.302 16.007 L 21.302 20 L 27.123 20 L 27.123 19.823 L 31.127 19.823 L 31.127 20 L 35.132 20 L 36.948 20 L 36.948 16.007 L 37.125 16.007 L 37.125 12.002 L 36.948 12.002 L 36.948 7.998 L 37.125 7.998 L 37.125 3.993 L 36.948 3.993 L 36.948 0 L 21.302 0 Z" id="right_outsideCutPath" stroke="#FF0000" stroke-width="0.12" style="stroke:#FF0000;stroke-width:0.12" vector-effect="non-scaling-stroke"/><path d="M 31.115 10.831 L 30.855 10.831 L 30.855 9.723 A 0.733 0.733 0 0 0 30.847 9.608 Q 30.837 9.548 30.817 9.5 A 0.309 0.309 0 0 0 30.76 9.411 Q 30.683 9.327 30.535 9.312 A 0.688 0.688 0 0 0 30.462 9.308 A 0.785 0.785 0 0 0 30.315 9.321 Q 30.155 9.351 30.067 9.455 Q 29.954 9.589 29.944 9.88 A 1.674 1.674 0 0 0 29.943 9.936 L 29.943 10.831 L 29.684 10.831 L 29.684 8.4 L 29.943 8.4 L 29.943 9.136 A 2.333 2.333 0 0 1 29.941 9.226 Q 29.938 9.3 29.93 9.356 L 29.946 9.356 Q 30.023 9.233 30.164 9.162 A 0.666 0.666 0 0 1 30.383 9.097 A 0.842 0.842 0 0 1 30.487 9.091 A 1.052 1.052 0 0 1 30.664 9.104 Q 30.849 9.136 30.958 9.24 A 0.452 0.452 0 0 1 31.069 9.415 Q 31.115 9.539 31.115 9.714 L 31.115 10.831 Z M 28.74 9.119 L 29.332 9.119 L 29.332 9.283 L 29.015 9.32 Q 29.052 9.366 29.082 9.436 A 0.799 0.799 0 0 1 29.093 9.463 A 0.499 0.499 0 0 1 29.123 9.582 A 0.641 0.641 0 0 1 29.127 9.662 Q 29.127 9.914 28.955 10.064 Q 28.801 10.199 28.542 10.213 A 1.126 1.126 0 0 1 28.484 10.214 A 0.834 0.834 0 0 1 28.387 10.209 A 0.704 0.704 0 0 1 28.34 10.202 A 0.462 0.462 0 0 0 28.265 10.25 Q 28.227 10.281 28.205 10.316 A 0.195 0.195 0 0 0 28.174 10.422 A 0.134 0.134 0 0 0 28.181 10.466 Q 28.193 10.502 28.229 10.524 A 0.144 0.144 0 0 0 28.232 10.526 Q 28.279 10.553 28.379 10.558 A 0.987 0.987 0 0 0 28.43 10.559 L 28.734 10.559 A 1.062 1.062 0 0 1 28.895 10.571 Q 28.979 10.584 29.047 10.611 A 0.469 0.469 0 0 1 29.161 10.677 A 0.379 0.379 0 0 1 29.302 10.918 A 0.57 0.57 0 0 1 29.31 11.017 A 0.562 0.562 0 0 1 29.278 11.211 Q 29.226 11.353 29.091 11.445 A 0.618 0.618 0 0 1 29.082 11.451 Q 28.923 11.555 28.662 11.586 A 2.056 2.056 0 0 1 28.416 11.6 Q 28.08 11.6 27.898 11.475 Q 27.728 11.358 27.717 11.151 A 0.548 0.548 0 0 1 27.716 11.122 Q 27.716 10.966 27.816 10.852 A 0.453 0.453 0 0 1 27.972 10.738 A 0.642 0.642 0 0 1 28.098 10.697 A 0.269 0.269 0 0 1 27.993 10.612 A 0.32 0.32 0 0 1 27.988 10.605 Q 27.943 10.542 27.943 10.459 Q 27.943 10.366 27.993 10.295 A 0.371 0.371 0 0 1 28.042 10.24 Q 28.086 10.199 28.151 10.159 A 0.455 0.455 0 0 1 27.953 10.001 A 0.564 0.564 0 0 1 27.934 9.973 A 0.536 0.536 0 0 1 27.852 9.715 A 0.654 0.654 0 0 1 27.851 9.673 A 0.749 0.749 0 0 1 27.87 9.496 A 0.493 0.493 0 0 1 28.02 9.24 A 0.551 0.551 0 0 1 28.231 9.123 Q 28.315 9.098 28.416 9.09 A 1.146 1.146 0 0 1 28.498 9.087 A 0.994 0.994 0 0 1 28.629 9.096 A 0.757 0.757 0 0 1 28.74 9.119 Z M 32.435 10.617 L 32.435 10.816 A 0.255 0.255 0 0 1 32.405 10.828 Q 32.367 10.84 32.311 10.849 A 1.124 1.124 0 0 1 32.238 10.859 Q 32.198 10.862 32.163 10.862 A 0.677 0.677 0 0 1 31.964 10.836 Q 31.744 10.768 31.687 10.53 A 0.815 0.815 0 0 1 31.666 10.339 L 31.666 9.32 L 31.421 9.32 L 31.421 9.195 L 31.666 9.087 L 31.776 8.722 L 31.926 8.722 L 31.926 9.119 L 32.423 9.119 L 32.423 9.32 L 31.926 9.32 L 31.926 10.328 A 0.522 0.522 0 0 0 31.933 10.42 Q 31.942 10.47 31.962 10.51 A 0.252 0.252 0 0 0 31.999 10.566 A 0.241 0.241 0 0 0 32.147 10.644 A 0.347 0.347 0 0 0 32.201 10.648 Q 32.27 10.648 32.334 10.638 Q 32.395 10.629 32.432 10.618 A 0.389 0.389 0 0 0 32.435 10.617 Z M 26.801 9.106 L 26.765 9.347 A 1.143 1.143 0 0 0 26.683 9.332 Q 26.626 9.323 26.577 9.323 A 0.449 0.449 0 0 0 26.245 9.467 A 0.615 0.615 0 0 0 26.222 9.492 Q 26.074 9.661 26.074 9.912 L 26.074 10.831 L 25.815 10.831 L 25.815 9.119 L 26.029 9.119 L 26.059 9.436 L 26.071 9.436 A 0.876 0.876 0 0 1 26.169 9.296 A 0.669 0.669 0 0 1 26.301 9.178 Q 26.435 9.087 26.596 9.087 A 1.191 1.191 0 0 1 26.703 9.092 A 0.869 0.869 0 0 1 26.801 9.106 Z M 27.38 9.119 L 27.38 10.831 L 27.121 10.831 L 27.121 9.119 L 27.38 9.119 Z M 28.651 10.792 L 28.34 10.792 A 0.596 0.596 0 0 0 28.232 10.801 Q 28.131 10.82 28.065 10.877 A 0.273 0.273 0 0 0 27.975 11.032 A 0.415 0.415 0 0 0 27.966 11.119 A 0.261 0.261 0 0 0 27.984 11.215 Q 28.011 11.285 28.084 11.33 Q 28.2 11.401 28.417 11.402 A 0.948 0.948 0 0 0 28.42 11.402 Q 28.746 11.402 28.903 11.304 A 0.378 0.378 0 0 0 28.991 11.23 A 0.284 0.284 0 0 0 29.06 11.039 A 0.351 0.351 0 0 0 29.054 10.969 Q 29.046 10.929 29.027 10.899 A 0.163 0.163 0 0 0 28.974 10.846 Q 28.888 10.792 28.651 10.792 Z M 28.107 9.667 A 0.506 0.506 0 0 0 28.117 9.773 Q 28.14 9.876 28.209 9.939 A 0.335 0.335 0 0 0 28.344 10.012 Q 28.409 10.031 28.491 10.031 A 0.565 0.565 0 0 0 28.639 10.014 Q 28.809 9.968 28.854 9.801 A 0.525 0.525 0 0 0 28.871 9.662 Q 28.871 9.277 28.487 9.277 Q 28.347 9.277 28.256 9.334 A 0.299 0.299 0 0 0 28.205 9.375 A 0.311 0.311 0 0 0 28.13 9.502 Q 28.107 9.573 28.107 9.667 Z M 27.103 8.607 A 0.287 0.287 0 0 0 27.099 8.655 A 0.306 0.306 0 0 0 27.101 8.684 Q 27.103 8.71 27.11 8.732 A 0.134 0.134 0 0 0 27.143 8.785 A 0.146 0.146 0 0 0 27.196 8.819 A 0.165 0.165 0 0 0 27.252 8.828 Q 27.315 8.828 27.36 8.785 A 0.127 0.127 0 0 0 27.385 8.752 Q 27.405 8.714 27.405 8.655 A 0.297 0.297 0 0 0 27.404 8.627 Q 27.402 8.601 27.395 8.58 A 0.131 0.131 0 0 0 27.36 8.525 A 0.153 0.153 0 0 0 27.252 8.483 A 0.198 0.198 0 0 0 27.239 8.483 A 0.15 0.15 0 0 0 27.143 8.524 A 0.121 0.121 0 0 0 27.116 8.562 Q 27.107 8.582 27.103 8.607 Z" id="right_labelLayer" stroke="#777777" fill="#777777" style="stroke:#777777;fill:#777777" vector-effect="non-scaling-stroke"/><path d="M 37.427 24.302 L 37.427 30.123 L 37.25 30.123 L 37.25 34.127 L 37.427 34.127 L 37.427 38.132 L 37.427 39.948 L 41.743 39.948 L 41.743 40.125 L 45.748 40.125 L 45.748 39.948 L 49.752 39.948 L 49.752 40.125 L 53.757 40.125 L 53.757 39.948 L 57.762 39.948 L 58.073 39.948 L 58.073 34.127 L 58.25 34.127 L 58.25 30.123 L 58.073 30.123 L 58.073 26.118 L 58.073 24.302 L 53.757 24.302 L 53.757 24.125 L 49.752 24.125 L 49.752 24.302 L 45.748 24.302 L 45.748 24.125 L 41.743 24.125 L 41.743 24.302 L 37.738 24.302 L 37.427 24.302 Z" id="bottom_outsideCutPath" stroke="#FF0000" stroke-width="0.12" style="stroke:#FF0000;stroke-width:0.12" vector-effect="non-scaling-stroke"/><path d="M 53.014 33.325 L 52.755 33.325 L 52.755 32.211 Q 52.755 32.006 52.667 31.904 A 0.273 0.273 0 0 0 52.54 31.822 Q 52.477 31.802 52.395 31.802 Q 52.153 31.802 52.037 31.941 A 0.429 0.429 0 0 0 51.965 32.072 Q 51.922 32.193 51.922 32.369 L 51.922 33.325 L 51.662 33.325 L 51.662 32.211 Q 51.662 32.006 51.575 31.904 Q 51.487 31.802 51.302 31.802 A 0.644 0.644 0 0 0 51.168 31.814 Q 51.024 31.845 50.945 31.948 Q 50.842 32.08 50.832 32.366 A 1.806 1.806 0 0 0 50.831 32.427 L 50.831 33.325 L 50.572 33.325 L 50.572 31.612 L 50.783 31.612 L 50.825 31.847 L 50.837 31.847 A 0.51 0.51 0 0 1 51.045 31.652 A 0.616 0.616 0 0 1 51.288 31.583 A 0.744 0.744 0 0 1 51.344 31.581 A 0.849 0.849 0 0 1 51.535 31.601 Q 51.778 31.657 51.869 31.872 L 51.881 31.872 Q 51.958 31.737 52.103 31.659 A 0.656 0.656 0 0 1 52.344 31.586 A 0.819 0.819 0 0 1 52.434 31.581 A 0.902 0.902 0 0 1 52.598 31.595 Q 52.689 31.612 52.76 31.649 A 0.427 0.427 0 0 1 52.87 31.73 Q 52.975 31.839 53.003 32.043 A 1.19 1.19 0 0 1 53.014 32.208 L 53.014 33.325 Z M 42.745 33.105 L 42.727 33.105 L 42.672 33.325 L 42.486 33.325 L 42.486 30.894 L 42.745 30.894 L 42.745 31.484 A 5.408 5.408 0 0 1 42.742 31.667 Q 42.739 31.753 42.734 31.83 A 3.198 3.198 0 0 1 42.733 31.841 L 42.745 31.841 A 0.59 0.59 0 0 1 43.176 31.591 A 0.886 0.886 0 0 1 43.283 31.584 A 0.793 0.793 0 0 1 43.506 31.614 A 0.593 0.593 0 0 1 43.807 31.815 A 0.764 0.764 0 0 1 43.941 32.073 Q 43.974 32.179 43.986 32.307 A 1.665 1.665 0 0 1 43.994 32.467 Q 43.994 32.765 43.9 32.969 A 0.729 0.729 0 0 1 43.805 33.123 A 0.614 0.614 0 0 1 43.369 33.352 A 0.88 0.88 0 0 1 43.283 33.356 A 0.787 0.787 0 0 1 43.085 33.332 A 0.685 0.685 0 0 1 42.977 33.294 A 0.574 0.574 0 0 1 42.745 33.105 Z M 47.167 33.111 L 47.167 33.309 A 0.255 0.255 0 0 1 47.137 33.321 Q 47.099 33.334 47.043 33.343 A 1.124 1.124 0 0 1 46.97 33.352 Q 46.93 33.356 46.895 33.356 A 0.677 0.677 0 0 1 46.696 33.329 Q 46.476 33.262 46.419 33.023 A 0.815 0.815 0 0 1 46.398 32.833 L 46.398 31.814 L 46.153 31.814 L 46.153 31.689 L 46.398 31.581 L 46.508 31.216 L 46.658 31.216 L 46.658 31.612 L 47.155 31.612 L 47.155 31.814 L 46.658 31.814 L 46.658 32.822 A 0.522 0.522 0 0 0 46.665 32.914 Q 46.674 32.964 46.694 33.004 A 0.252 0.252 0 0 0 46.731 33.059 A 0.241 0.241 0 0 0 46.879 33.138 A 0.347 0.347 0 0 0 46.933 33.142 Q 47.002 33.142 47.066 33.132 Q 47.127 33.122 47.164 33.112 A 0.389 0.389 0 0 0 47.167 33.111 Z M 48.297 33.111 L 48.297 33.309 A 0.255 0.255 0 0 1 48.267 33.321 Q 48.229 33.334 48.173 33.343 A 1.124 1.124 0 0 1 48.099 33.352 Q 48.06 33.356 48.025 33.356 A 0.677 0.677 0 0 1 47.825 33.329 Q 47.606 33.262 47.548 33.023 A 0.815 0.815 0 0 1 47.528 32.833 L 47.528 31.814 L 47.283 31.814 L 47.283 31.689 L 47.528 31.581 L 47.637 31.216 L 47.787 31.216 L 47.787 31.612 L 48.284 31.612 L 48.284 31.814 L 47.787 31.814 L 47.787 32.822 A 0.522 0.522 0 0 0 47.795 32.914 Q 47.804 32.964 47.824 33.004 A 0.252 0.252 0 0 0 47.861 33.059 A 0.241 0.241 0 0 0 48.009 33.138 A 0.347 0.347 0 0 0 48.062 33.142 Q 48.131 33.142 48.195 33.132 Q 48.256 33.122 48.293 33.112 A 0.389 0.389 0 0 0 48.297 33.111 Z M 45.901 32.728 A 1.34 1.34 0 0 0 45.925 32.467 Q 45.925 32.059 45.713 31.82 A 0.679 0.679 0 0 0 45.398 31.617 A 0.872 0.872 0 0 0 45.142 31.581 A 1.007 1.007 0 0 0 44.961 31.597 A 0.686 0.686 0 0 0 44.561 31.815 Q 44.352 32.048 44.352 32.467 A 1.298 1.298 0 0 0 44.368 32.677 A 0.96 0.96 0 0 0 44.448 32.939 Q 44.545 33.141 44.723 33.248 A 0.722 0.722 0 0 0 44.889 33.322 A 0.833 0.833 0 0 0 45.131 33.356 A 1.007 1.007 0 0 0 45.307 33.342 A 0.691 0.691 0 0 0 45.714 33.121 A 0.724 0.724 0 0 0 45.8 33.003 Q 45.87 32.882 45.901 32.728 Z M 50.093 32.728 A 1.34 1.34 0 0 0 50.117 32.467 Q 50.117 32.059 49.905 31.82 A 0.679 0.679 0 0 0 49.59 31.617 A 0.872 0.872 0 0 0 49.334 31.581 A 1.007 1.007 0 0 0 49.153 31.597 A 0.686 0.686 0 0 0 48.753 31.815 Q 48.544 32.048 48.544 32.467 A 1.298 1.298 0 0 0 48.56 32.677 A 0.96 0.96 0 0 0 48.641 32.939 Q 48.737 33.141 48.916 33.248 A 0.722 0.722 0 0 0 49.081 33.322 A 0.833 0.833 0 0 0 49.323 33.356 A 1.007 1.007 0 0 0 49.499 33.342 A 0.691 0.691 0 0 0 49.906 33.121 A 0.724 0.724 0 0 0 49.992 33.003 Q 50.063 32.882 50.093 32.728 Z M 44.62 32.467 Q 44.62 32.795 44.752 32.967 Q 44.883 33.139 45.137 33.139 Q 45.392 33.139 45.524 32.968 A 0.557 0.557 0 0 0 45.611 32.799 Q 45.636 32.721 45.648 32.626 A 1.366 1.366 0 0 0 45.656 32.467 A 1.294 1.294 0 0 0 45.644 32.283 Q 45.63 32.189 45.602 32.113 A 0.534 0.534 0 0 0 45.524 31.971 A 0.427 0.427 0 0 0 45.259 31.813 A 0.654 0.654 0 0 0 45.134 31.802 A 0.617 0.617 0 0 0 44.981 31.82 A 0.413 0.413 0 0 0 44.75 31.969 Q 44.657 32.089 44.63 32.294 A 1.371 1.371 0 0 0 44.62 32.467 Z M 48.812 32.467 Q 48.812 32.795 48.944 32.967 Q 49.075 33.139 49.33 33.139 Q 49.584 33.139 49.716 32.968 A 0.557 0.557 0 0 0 49.803 32.799 Q 49.829 32.721 49.84 32.626 A 1.366 1.366 0 0 0 49.848 32.467 A 1.294 1.294 0 0 0 49.836 32.283 Q 49.823 32.189 49.794 32.113 A 0.534 0.534 0 0 0 49.716 31.971 A 0.427 0.427 0 0 0 49.451 31.813 A 0.654 0.654 0 0 0 49.327 31.802 A 0.617 0.617 0 0 0 49.173 31.82 A 0.413 0.413 0 0 0 48.942 31.969 Q 48.849 32.089 48.823 32.294 A 1.371 1.371 0 0 0 48.812 32.467 Z M 42.963 31.866 A 0.345 0.345 0 0 0 42.862 31.954 Q 42.745 32.106 42.745 32.467 Q 42.745 32.774 42.832 32.932 A 0.391 0.391 0 0 0 42.866 32.984 Q 42.973 33.123 43.198 33.137 A 0.834 0.834 0 0 0 43.252 33.139 A 0.517 0.517 0 0 0 43.398 33.119 A 0.373 0.373 0 0 0 43.608 32.965 Q 43.725 32.791 43.725 32.464 A 1.532 1.532 0 0 0 43.716 32.289 Q 43.692 32.084 43.608 31.966 A 0.378 0.378 0 0 0 43.367 31.813 A 0.6 0.6 0 0 0 43.245 31.802 Q 43.073 31.802 42.963 31.866 Z" id="bottom_labelLayer" stroke="#777777" fill="#777777" style="stroke:#777777;fill:#777777" vector-effect="non-scaling-stroke"/></g></svg>