<?xml version="1.0" encoding="UTF-8" standalone="no"?>
<svg
   xmlns:dc="http://purl.org/dc/elements/1.1/"
   xmlns:cc="http://creativecommons.org/ns#"
   xmlns:rdf="http://www.w3.org/1999/02/22-rdf-syntax-ns#"
   xmlns:svg="http://www.w3.org/2000/svg"
   xmlns="http://www.w3.org/2000/svg"
   xmlns:sodipodi="http://sodipodi.sourceforge.net/DTD/sodipodi-0.dtd"
   xmlns:inkscape="http://www.inkscape.org/namespaces/inkscape"
   width="48in"
   height="48in"
   viewBox="0 0 48 48"
   version="1.1"
   preserveAspectRatio="xMidYMid meet"
   id="svg13"
   sodipodi:docname="20200402-06-jot-box.svg"
   inkscape:version="0.92.2 5c3e80d, 2017-08-06">
  <metadata
     id="metadata19">
    <rdf:RDF>
      <cc:Work
         rdf:about="">
        <dc:format>image/svg+xml</dc:format>
        <dc:type
           rdf:resource="http://purl.org/dc/dcmitype/StillImage" />
        <dc:title></dc:title>
      </cc:Work>
    </rdf:RDF>
  </metadata>
  <defs
     id="defs17" />
  <sodipodi:namedview
     pagecolor="#ffffff"
     bordercolor="#666666"
     borderopacity="1"
     objecttolerance="10"
     gridtolerance="10"
     guidetolerance="10"
     inkscape:pageopacity="0"
     inkscape:pageshadow="2"
     inkscape:window-width="1593"
     inkscape:window-height="1150"
     id="namedview15"
     showgrid="false"
     inkscape:document-units="in"
     inkscape:zoom="0.12253375"
     inkscape:cx="2852.399"
     inkscape:cy="2319.8003"
     inkscape:window-x="103"
     inkscape:window-y="15"
     inkscape:window-maximized="0"
     inkscape:current-layer="svgGroup"
     inkscape:measure-start="0,0"
     inkscape:measure-end="0,0" />
  <g
     id="svgGroup"
     font-size="9pt"
     style="font-size:12px;fill:none;fill-rule:evenodd;stroke:#000000;stroke-width:0.25000001mm;stroke-linecap:round"
     transform="translate(0,7.875)">
    <path
       d="m 44.428932,30.936852 h 0.177 v 4.005 h -0.177 v 3.993 h -5.821 v -0.177 h -4.004 v 0.177 h -4.005 -1.816 v -3.993 h -0.177 v -4.005 h 0.177 v -4.004 h -0.177 v -4.005 h 0.177 v -3.993 h 15.646 v 5.9955 z"
       id="left_outsideCutPath"
       style="vector-effect:non-scaling-stroke;stroke:#ff0000;stroke-width:0.12;stroke-miterlimit:4;stroke-dasharray:none"
       inkscape:connector-curvature="0"
       sodipodi:nodetypes="ccccccccccccccccccccccc" />
    <path
       d="M 0,-0.14583332 V 3.8471668 h 0.177 v 4.005 H 0 v 4.0040012 h 0.177 v 4.005 H 0 v 3.993 h 4.493 v -0.177 h 4.005 v 0.177 h 4.004 v -0.177 h 4.005 v 0.177 H 20.512 21 v -3.993 h -0.177 v -4.005 H 21 V 7.8521668 h -0.177 v -4.005 H 21 v -3.99300012 z"
       id="back_outsideCutPath"
       style="vector-effect:non-scaling-stroke;stroke:#ff0000;stroke-width:0.12"
       inkscape:connector-curvature="0" />
    <path
       d="m 28.782932,10.811852 h -0.177 v 4.005 h 0.177 v 3.993 h 5.821 v -0.177 h 4.004 v 0.177 h 4.005 1.816 v -3.993 h 0.177 v -4.005 h -0.177 V 6.8078517 h 0.177 v -4.005 h -0.177 v -3.993 h -15.646 l 0,5.9955 z"
       id="right_outsideCutPath"
       style="vector-effect:non-scaling-stroke;stroke:#ff0000;stroke-width:0.12"
       inkscape:connector-curvature="0"
       sodipodi:nodetypes="ccccccccccccccccccccccc" />
    <path
       d="m 0.70242374,22.431767 v 5.821 h -0.177 v 4.004 h 0.177 v 4.005 1.816 H 5.0184237 v 0.177 h 4.005 v -0.177 h 4.0040003 v 0.177 h 4.005 v -0.177 h 4.005 0.311 v -5.821 h 0.177 v -4.004 h -0.177 v -4.005 -1.816 h -4.316 v -0.177 h -4.005 v 0.177 H 9.0234237 v -0.177 h -4.005 v 0.177 h -4.005 z"
       id="bottom_outsideCutPath"
       style="vector-effect:non-scaling-stroke;stroke:#ff0000;stroke-width:0.12"
       inkscape:connector-curvature="0" />
    <path
       style="fill:none;fill-opacity:1;fill-rule:nonzero;stroke:#000000;stroke-width:0.01399536;stroke-miterlimit:4;stroke-dasharray:none;stroke-opacity:1"
       d="M 6.9704843,10.196907 A 2.4930024,2.4930024 0 0 1 4.4774818,12.689909 2.4930024,2.4930024 0 0 1 1.9844794,10.196907 2.4930024,2.4930024 0 0 1 4.4774818,7.7039046 2.4930024,2.4930024 0 0 1 6.9704843,10.196907 Z"
       id="path881"
       inkscape:connector-curvature="0" />
    <path
       d="m 26.457164,-7.264012 v 1.0036254 h -0.177 v 3.993 h 4.493 v -0.177 h 4.005 v 0.177 h 4.004 v -0.177 h 4.005 v 0.177 h 4.005 0.488 v -3.993 h -0.177 v -1.008561"
       id="back_outsideCutPath-7"
       style="font-size:12px;vector-effect:non-scaling-stroke;fill:none;fill-rule:evenodd;stroke:#ff0000;stroke-width:0.12;stroke-linecap:round"
       inkscape:connector-curvature="0"
       sodipodi:nodetypes="ccccccccccccccccc" />
    <path
       style="fill:none;stroke:#000000;stroke-width:0.01041667px;stroke-linecap:butt;stroke-linejoin:miter;stroke-opacity:1"
       d="m 26.45717,-7.2640118 h 20.632141 l 0.01387,-0.00494"
       id="path2140"
       inkscape:connector-curvature="0" />
    <circle
       style="fill:none;fill-opacity:1;fill-rule:nonzero;stroke:#000000;stroke-width:0.00983755;stroke-miterlimit:4;stroke-dasharray:none;stroke-opacity:1"
       id="path2203"
       cx="16.518875"
       cy="10.172785"
       r="2.4950812" />
  </g>
  <g
     inkscape:groupmode="layer"
     id="layer1"
     inkscape:label="Cuts" />
  <g
     inkscape:groupmode="layer"
     id="layer2"
     inkscape:label="Scribe">
    <rect
       style="fill:none;fill-rule:evenodd;stroke:#010000;stroke-width:0.00475526;stroke-opacity:1"
       id="rect2821-8-0-2-4"
       width="19.06629"
       height="3.0111363"
       x="27.345299"
       y="1.5009247" />
    <rect
       style="fill:none;fill-rule:evenodd;stroke:#010000;stroke-width:0.00963409;stroke-opacity:1"
       id="rect2821-8-0-2"
       width="13.471036"
       height="17.493145"
       x="29.992649"
       y="7.9954133" />
    <rect
       style="fill:none;fill-rule:evenodd;stroke:#010000;stroke-width:0.01156111;stroke-opacity:1"
       id="rect2821-8"
       width="18.819038"
       height="18.032223"
       x="1.0472109"
       y="8.7177143" />
    <rect
       style="fill:none;fill-rule:evenodd;stroke:#010000;stroke-width:0.01041667;stroke-opacity:1"
       id="rect2821"
       width="19.175596"
       height="14.36667"
       x="1.5027896"
       y="30.988436" />
    <rect
       style="fill:none;fill-rule:evenodd;stroke:#010000;stroke-width:0.00963409;stroke-opacity:1"
       id="rect2821-8-0"
       width="13.471036"
       height="17.493145"
       x="29.962593"
       y="27.862286" />
  </g>
</svg>
